# xmcd
#
# Track frame offsets: 
#        150
#        14798
#        29549
#        41083
#        55881
#        69368
#        83652
#        99015
#        113026
#        126884
#        143868
#        159698
#        173345
#        188869
#        202656
#        217469
#        234514
#        248911
#        263713
#        278955
#        296749
#        315061
#        330214
#        343672
#
# Disc length: 4756 seconds
#
# Revision: 0
# Processed by: cddbd v1.5.2PL0 Copyright (c) Steve Scherf et al.
# Submitted via: ExactAudioCopy v0.99pb5
#
DISCID=55129218
DTITLE=Oscar Peterson  - Songbooks Etcetera [Disc 1]  FLAC
DYEAR=1900
DGENRE=
TTITLE0=What Is This Thing Called Love
TTITLE1=Begin The Beguine
TTITLE2=I've Got You Under My Skin
TTITLE3=Love For Sale
TTITLE4=Let's Do It (Let's Fall In Love)
TTITLE5=I Love You
TTITLE6=So Near And Yet So Far
TTITLE7=Just One Of Those Things
TTITLE8=In The Still Of The Night
TTITLE9=Night And Day
TTITLE10=Ev'ry Time We Say Goodbye
TTITLE11=Anything Goes
TTITLE12=John Hardy's Wife
TTITLE13=Sophisticated Lady
TTITLE14=Things Ain't What They Used To Be
TTITLE15=Just A-Sittin' And A-Rockin'
TTITLE16=In A Mellow Tone
TTITLE17=I Got It Bad (And That Ain't Good)
TTITLE18=Prelude To A Kiss
TTITLE19=Cottontail
TTITLE20=Don't Get Around Much Anymore
TTITLE21=Take The -A- Train
TTITLE22=Rockin' In Rhythm
TTITLE23=Do Nothin' Till You Hear From Me
EXTD=
EXTT0=
EXTT1=
EXTT2=
EXTT3=
EXTT4=
EXTT5=
EXTT6=
EXTT7=
EXTT8=
EXTT9=
EXTT10=
EXTT11=
EXTT12=
EXTT13=
EXTT14=
EXTT15=
EXTT16=
EXTT17=
EXTT18=
EXTT19=
EXTT20=
EXTT21=
EXTT22=
EXTT23=
PLAYORDER=
